<svg xmlns="http://www.w3.org/2000/svg" fill="none" viewBox="0 0 128 128">
    <path d="M4.90625 87.25L9.10417 95H17.5L13.1989 87.25H4.90625Z" fill="#29233B"/>
    <path d="M34.2125 33H42.6875L13.1755 86.2812H4.90625L34.2125 33Z" fill="#29233B"/>
    <path d="M93.3786 51.4062L89.1875 59.0299L109.045 95H117.281L93.3786 51.4062Z" fill="#29233B"/>
    <path d="M18.4688 93.5469L42.9788 48.6737L58.6951 77.0781L63.0313 69.3726L43.9476 33L14.5938 86.7768L18.4688 93.5469Z" fill="#29233B"/>
    <path d="M38.8125 58.5682L58.8296 95L88.2188 41.9115L83.9653 33.9688L58.8296 79.2521L42.991 51.0798L38.8125 58.5682Z" fill="#29233B"/>
    <path d="M123.094 87.6332L97.4219 42.1479H89.2425L59.9391 94.9999H68.1158L93.6804 49.7546L118.677 94.7431L123.094 87.6332Z" fill="#29233B"/>
    <path d="M84.8281 33.4844L89.0235 41.2344H97.4219L93.1208 33.4844H84.8281Z" fill="#29233B"/>
    <style>
        path { fill: #000; }
        @media (prefers-color-scheme: dark) {
            path { fill: #FFF; }
        }
    </style>
</svg>
